# xmcd
#
# Track frame offsets: 
#        150
#        16823
#        33003
#        45155
#        58609
#        71617
#        83883
#        96217
#        109917
#        122727
#        140296
#        157937
#        174728
#        187958
#        197864
#        211893
#
# Disc length: 3018 seconds
#
# Revision: 0
# Processed by: cddbd v1.5.2PL0 Copyright (c) Steve Scherf et al.
# Submitted via: ExactAudioCopy v0.99pb4
#
DISCID=cd0bc810
DTITLE=Buzgi - Buzgi Goes Carinthia
DYEAR=2011
DGENRE=
TTITLE0=For me there's no reason (Für mi gibt's ka Hamgeahn)
TTITLE1=Morning sun ( Junga Tog)
TTITLE2=There is a peace at the lake (Is schon still uman See)
TTITLE3=If you're not with me (Bist du nit ba mir)
TTITLE4=The old man seed (Da Goßvota saat)
TTITLE5=Deep in my eyes (In meine Augen drin)
TTITLE6=Holy home (Hamat Hamat)
TTITLE7=In the trees there's hiding the sun (Auf da Fratn)
TTITLE8=Darling come close to me (Diandle geh her zan Zaun)
TTITLE9=My home oh my Carinthia (Mei Hamat is a Schotzale)
TTITLE10=If i were you ( I, wonn ui du war)
TTITLE11=Oh Carinthia is all (Jo a Karntn is lei ans)
TTITLE12=Lonesome (Valossn)
TTITLE13=This Leathertrousers (Die Ledarhosen)
TTITLE14=Good bye beloved field (Pfiat Gott, liabe Alm)
TTITLE15=I'm longing for you (Zu dir ziagts mi hin)
EXTD=
EXTT0=
EXTT1=
EXTT2=
EXTT3=
EXTT4=
EXTT5=
EXTT6=
EXTT7=
EXTT8=
EXTT9=
EXTT10=
EXTT11=
EXTT12=
EXTT13=
EXTT14=
EXTT15=
PLAYORDER=
